<svg width="55" height="55" viewBox="0 0 55 55" fill="none" xmlns="http://www.w3.org/2000/svg">
<g clip-path="url(#clip0_697_7776)">
<path d="M27.502 11.001C20.1685 11.001 15.5867 14.6662 13.752 21.9997C16.5011 18.334 19.7104 16.9595 23.3761 17.876C25.4691 18.3976 26.9648 19.9153 28.6213 21.5971C31.3171 24.3329 34.4375 27.5001 41.252 27.5001C48.585 27.5001 53.1672 23.8345 55.002 16.4993C52.252 20.1668 49.0438 21.5421 45.3774 20.6251C43.2848 20.103 41.7908 18.5858 40.1322 16.904C37.438 14.1682 34.3185 11.001 27.502 11.001ZM13.752 27.5001C6.41891 27.5001 1.83672 31.1658 0.00195312 38.501C2.75167 34.8335 5.95971 33.4582 9.62609 34.3751C11.7191 34.8972 13.2148 36.4144 14.8713 38.0962C17.5671 40.832 20.6875 43.9993 27.502 43.9993C34.835 43.9993 39.4172 40.334 41.252 33.0005C38.502 36.6664 35.2938 38.0409 31.6274 37.1243C29.5348 36.6026 28.0408 35.085 26.3822 33.4032C23.688 30.6673 20.5685 27.5001 13.752 27.5001Z" fill="#38BDF8"/>
</g>
<defs>
<clipPath id="clip0_697_7776">
<rect width="55" height="55" fill="white"/>
</clipPath>
</defs>
</svg>
