<svg width="55" height="55" viewBox="0 0 55 55" fill="none" xmlns="http://www.w3.org/2000/svg">
<g clip-path="url(#clip0_696_7732)">
<path d="M9.74023 20.1953H52.5672V51.8504H9.74023V20.1953Z" fill="white"/>
<path d="M0.644531 27.4609V54.3164H54.3555V0.605469H0.644531V27.4609ZM43.927 25.3125C45.2134 25.611 46.3826 26.2839 47.2871 27.2461C47.785 27.7645 48.2179 28.3417 48.5762 28.9648C48.5762 29.0336 46.2559 30.602 44.8422 31.4785C44.7906 31.5129 44.5844 31.2895 44.3566 30.95C44.0986 30.5047 43.7319 30.132 43.2908 29.8668C42.8498 29.6016 42.3487 29.4524 41.8344 29.4332C40.2059 29.3215 39.1574 30.1766 39.166 31.5816C39.153 31.9314 39.233 32.2784 39.398 32.5871C39.7547 33.3305 40.4207 33.773 42.509 34.6754C46.3547 36.3297 48.0004 37.4211 49.023 38.9723C50.166 40.691 50.4195 43.4668 49.6461 45.5207C48.7867 47.7551 46.6812 49.2719 43.7035 49.7746C42.3435 49.9305 40.9693 49.916 39.6129 49.7316C37.5339 49.3889 35.6189 48.3908 34.1473 46.8828C33.6531 46.3371 32.6906 44.9148 32.7508 44.8117C32.9073 44.6948 33.0725 44.59 33.2449 44.498L35.2344 43.398L36.777 42.5043L37.0992 42.9812C37.6433 43.7591 38.3354 44.422 39.1359 44.932C40.8547 45.8344 43.2008 45.7098 44.3609 44.6656C44.7505 44.283 44.9935 43.7759 45.0476 43.2326C45.1018 42.6893 44.9637 42.1442 44.6574 41.6922C44.2277 41.0949 43.3684 40.5922 40.9664 39.5437C38.1949 38.3492 37.0004 37.6102 35.909 36.4328C35.2279 35.6557 34.7249 34.7392 34.4352 33.7473C34.2193 32.6139 34.1873 31.4532 34.3406 30.3098C34.9121 27.6328 36.9187 25.7637 39.8492 25.2094C41.2064 25.0417 42.581 25.0794 43.927 25.3211V25.3125ZM31.3199 27.5641V29.7641H24.3461V49.6285H19.4004V29.7598H12.4094V27.6113C12.3874 26.8704 12.4047 26.1289 12.4609 25.3898C12.4953 25.3512 16.7578 25.3512 21.9141 25.3512H31.2941L31.3199 27.5641Z" fill="#007ACC"/>
</g>
<defs>
<clipPath id="clip0_696_7732">
<rect width="55" height="55" fill="white"/>
</clipPath>
</defs>
</svg>
