<svg width="55" height="55" viewBox="0 0 55 55" fill="none" xmlns="http://www.w3.org/2000/svg">
<path fill-rule="evenodd" clip-rule="evenodd" d="M0.523438 24.1295C0.523438 24.4316 0.612383 24.631 0.662227 24.8248C0.98707 26.085 1.68531 27.1666 2.51375 28.1531C3.69367 29.5591 5.13871 30.6909 6.61898 31.7552C7.90289 32.6782 9.21301 33.5805 10.5021 34.4966C10.7234 34.6539 10.9326 34.8348 11.1728 35.0277C10.9661 35.1394 10.7943 35.2378 10.6155 35.3285C8.91437 36.1913 7.27769 37.1585 5.76906 38.3303C4.85984 39.0367 3.9807 39.7873 3.3598 40.7683C2.36078 42.3461 2.00715 44.0271 2.7518 45.8219C2.96922 46.3461 3.30094 46.799 3.76887 47.1337C3.92055 47.242 4.0907 47.3494 4.26816 47.3915C4.72277 47.4985 5.18598 47.5686 5.64617 47.6532L6.94941 47.6523C8.39059 47.5239 9.70242 47.0302 10.8879 46.212C12.7407 44.9333 13.989 43.2188 14.5257 41.0184C14.9158 39.4191 14.9317 37.8181 14.472 36.2261C14.4278 36.0787 14.377 35.9333 14.3198 35.7904C14.264 35.6473 14.1982 35.5081 14.1209 35.3298L17.0754 33.6308L17.1197 33.6686C17.066 33.8443 17.0088 34.0196 16.9603 34.1971C16.6092 35.4793 16.3759 36.7838 16.4597 38.1146C16.5491 39.5325 16.9448 40.8598 17.775 42.0445C18.4461 43.0027 20.0454 43.0384 20.7587 42.0767C21.0118 41.7351 21.2571 41.378 21.4415 40.9969C21.9232 40.0022 22.3692 38.9898 22.8294 37.9844L22.9097 37.8005C22.8766 38.2766 22.838 38.6946 22.8203 39.1132C22.7928 39.7667 22.8311 40.4164 23.0545 41.0382C23.2457 41.5701 23.571 41.9676 24.1803 42.0376C24.5971 42.0853 24.9293 41.8945 25.2356 41.6526C25.7101 41.2774 26.1035 40.8098 26.3919 40.278C27.2087 38.778 28.0475 37.287 28.7878 35.7491C29.5888 34.0858 30.2892 32.3739 31.033 30.6823L31.1559 30.3823C31.3316 31.0729 31.4541 31.7492 31.6796 32.3894C31.9418 33.1323 32.2662 33.8577 32.6194 34.5628C32.7865 34.8958 32.7672 35.1119 32.5356 35.3912C31.5662 36.56 30.6136 37.7429 29.6601 38.9245C29.4491 39.1854 29.239 39.4509 29.0633 39.7358C28.9567 39.9157 28.8866 40.1148 28.857 40.3219C28.8275 40.5125 28.8728 40.7071 28.9836 40.865C29.0944 41.0229 29.262 41.1318 29.4513 41.1688C29.8333 41.2508 30.225 41.2788 30.6149 41.2517C31.9456 41.1537 33.1539 40.6867 34.2221 39.8952C35.6061 38.87 36.0504 37.4709 35.7153 35.8127C35.6246 35.3629 35.4643 34.9254 35.3084 34.4919C35.2383 34.2964 35.2336 34.1593 35.3612 33.9771C36.4677 32.3971 37.413 30.7209 38.2921 29.0061C38.3269 28.9386 38.3626 28.8711 38.4236 28.7989C38.7085 30.2814 39.1373 31.7101 39.9056 33.0064C39.5137 33.3841 39.1257 33.7266 38.7746 34.1039C38.0016 34.9349 37.3313 35.8372 36.9816 36.9377C36.8312 37.412 36.7156 37.8941 36.7826 38.4007C36.8866 39.1875 37.5311 39.6988 38.305 39.5196C39.961 39.1364 41.3906 38.3561 42.4352 36.9737C43.1381 36.043 43.2021 35.0049 42.9078 33.9174C42.827 33.6218 42.7312 33.3309 42.6281 32.9918C43.0367 32.8651 43.435 32.713 43.8471 32.6189C45.9865 32.1307 48.1027 32.2158 50.1644 32.9884C51.3679 33.4396 52.3403 34.1945 52.9169 35.3822C53.6212 36.8341 53.2319 38.2117 51.8634 39.1295C51.7357 39.215 51.5896 39.2825 51.4839 39.3895C51.4501 39.4287 51.4248 39.4746 51.4096 39.5241C51.3945 39.5737 51.3898 39.6259 51.3959 39.6773C51.4049 39.7302 51.5445 39.7964 51.6249 39.7955C52.0748 39.7921 52.4396 39.5562 52.7898 39.3138C53.6672 38.7067 54.3074 37.8898 54.4453 36.8143L54.4724 36.7336L54.4393 36.0332C54.426 35.9928 54.4492 35.9528 54.4462 35.9223C54.2597 34.3561 53.4231 33.1414 52.2062 32.1892C50.7969 31.087 49.1327 30.6333 47.3727 30.5615C45.9453 30.5001 44.5197 30.7195 43.1768 31.2073C42.7914 31.347 42.4094 31.5124 42.0218 31.6684C41.9698 31.5743 41.9139 31.4841 41.868 31.3908C41.4701 30.5761 40.988 29.7975 40.8814 28.8634C40.8058 28.2 40.713 27.5374 40.8707 26.8813C41.0223 26.25 41.22 25.6296 41.4061 25.007C41.5019 24.6864 41.4344 24.5068 41.1285 24.3624C41.0216 24.3101 40.9079 24.2727 40.7907 24.2516C40.0388 24.1424 39.2971 24.2047 38.5688 24.4166C38.311 24.4918 38.1237 24.6361 38.0665 24.9214C38.0339 25.0852 37.9673 25.242 37.9209 25.4036C37.7305 26.0752 37.5956 26.7596 37.2879 27.3995C36.5171 29.0043 35.6371 30.5486 34.7364 32.0818C34.6389 32.2472 34.5362 32.4096 34.4133 32.6103C34.0971 31.9486 33.7598 31.3547 33.6575 30.6586C33.5419 29.8714 33.4508 29.0855 33.6468 28.3044C33.7924 27.7217 33.9828 27.1498 34.1581 26.5749C34.241 26.3016 34.2028 26.1581 33.9553 26.0141C33.8302 25.9415 33.6889 25.8771 33.5479 25.856C32.7769 25.7385 31.9891 25.803 31.2474 26.0442C31.0141 26.1198 30.8916 26.2707 30.8203 26.5113C30.6106 27.2211 30.4318 27.9482 30.1375 28.6232C28.9455 31.356 27.7192 34.0746 26.4942 36.7929C26.2385 37.3605 25.939 37.9083 25.6507 38.4609C25.5777 38.601 25.4711 38.7243 25.38 38.8558C25.307 38.7694 25.2786 38.7101 25.279 38.6508C25.2812 38.3015 25.2395 37.9418 25.3061 37.6041C25.5106 36.5827 25.7367 35.5656 25.9841 34.5538C26.1861 33.7176 26.4211 32.8891 26.645 32.0586C26.7202 31.7805 26.7215 31.5206 26.5217 31.2868C26.1861 30.8954 25.4848 30.8095 25.0689 31.1111L24.885 31.2151L24.9207 30.9186C25.0083 30.2831 25.0259 29.6497 24.8515 29.0237C24.6341 28.2434 24.0772 27.7943 23.2677 27.8193C22.8904 27.8309 22.4942 27.8953 22.1449 28.0328C20.6758 28.6086 19.5461 29.6282 18.5845 30.855C18.4953 30.9688 18.3848 31.0643 18.2592 31.136C17.0161 31.8252 15.7692 32.5059 14.5227 33.1891L13.1352 33.9492C12.7631 33.5943 12.4249 33.226 12.0412 32.9136C10.8695 31.958 9.67879 31.026 8.49887 30.0811C7.45301 29.2437 6.4398 28.3714 5.66465 27.2624C5.08801 26.4374 4.71633 25.5346 4.68066 24.5145C4.63555 23.2147 5.00422 22.0271 5.66594 20.9215C6.51242 19.507 7.66699 18.3717 8.93629 17.3435C10.2791 16.2564 11.7314 15.3334 13.2366 14.4908C15.3425 13.3121 17.5086 12.2689 19.831 11.5801C22.2123 10.8737 24.6285 10.4693 27.1207 10.7512C28.1003 10.8621 29.0517 11.0864 29.9252 11.5655C30.5943 11.932 31.143 12.412 31.3982 13.1622C31.65 13.9004 31.6423 14.6485 31.4678 15.3983C31.1133 16.9168 30.2819 18.1685 29.2356 19.287C27.5194 21.1204 25.426 22.3687 23.0691 23.1932C21.714 23.6679 20.3041 23.9686 18.8732 24.0883C17.7006 24.1867 16.5525 24.0827 15.4422 23.6749C14.707 23.4046 14.0668 22.9913 13.552 22.3914C13.46 22.284 13.3423 22.1676 13.1709 22.2681C13.0029 22.367 12.9732 22.5268 13.0295 22.6888C13.1236 22.9578 13.2104 23.2379 13.3569 23.4786C13.7252 24.0823 14.2623 24.5201 14.8535 24.8957C15.9892 25.618 17.2585 25.8607 18.5746 25.917C20.5718 26.0034 22.5204 25.7052 24.4416 25.1694C27.1843 24.4045 29.569 23.0536 31.4816 20.9223C33.074 19.1477 34.2114 17.145 34.455 14.7267C34.574 13.5463 34.4473 12.39 33.8947 11.3132C33.2953 10.1466 32.3422 9.2791 31.2027 8.68141C29.5432 7.81129 27.7523 7.30469 25.9038 7.30469H24.0518C21.8132 7.30469 19.6488 7.94621 17.5451 8.71148C15.9527 9.29113 14.3912 9.9752 12.8752 10.7323C9.57394 12.3819 6.49953 14.3709 3.97426 17.1059C2.71613 18.4684 1.65094 19.9719 1.0382 21.7422C0.853586 22.2708 0.694277 22.808 0.56082 23.3518M12.5229 38.8261C12.3798 40.7421 11.5114 42.2954 10.0921 43.5536C9.29379 44.2608 8.37812 44.7644 7.31164 44.9414C6.92492 45.0055 6.52918 45.0209 6.15406 44.8607C5.6191 44.6321 5.49922 44.1573 5.48891 43.6515C5.47301 42.8454 5.75531 42.1167 6.14246 41.4232C6.64777 40.5191 7.38855 39.8299 8.17961 39.1862C9.4257 38.1717 10.7775 37.3132 12.162 36.5028L12.2664 36.4598C12.4804 37.2505 12.5822 38.0312 12.5229 38.8261ZM23.333 30.4992C23.232 31.1111 23.1057 31.7234 22.9269 32.3164C22.309 34.369 21.5154 36.358 20.6573 38.3204C20.4987 38.6835 20.268 39.0148 20.0673 39.3589C20.0332 39.4118 19.9923 39.4601 19.9457 39.5025C19.6974 39.7478 19.4619 39.7349 19.3364 39.4139C19.1903 39.041 19.1005 38.6418 19.0232 38.2469C18.9712 37.9818 18.9837 37.7034 18.9673 37.4318C18.9841 35.5008 19.5732 33.7459 20.5727 32.1123C20.9847 31.4385 21.4333 30.7966 22.1187 30.3703C22.3319 30.2379 22.5626 30.1358 22.804 30.067C23.1693 29.9643 23.3936 30.1331 23.333 30.4992ZM30.7081 39.8956L33.3589 36.8006C33.4693 37.95 31.5155 40.2445 30.7081 39.8956ZM39.1743 37.8129C38.9869 37.9204 38.7828 37.9977 38.5907 38.097C38.415 38.188 38.357 38.0961 38.3518 37.9448C38.3493 37.8401 38.3628 37.7357 38.3918 37.635C38.7497 36.3726 39.4084 35.295 40.3886 34.4184L40.4573 34.3832C40.9235 35.6873 40.3847 37.1194 39.1743 37.8129Z" fill="#CB6699"/>
</svg>
