<svg width="55" height="55" viewBox="0 0 55 55" fill="none" xmlns="http://www.w3.org/2000/svg">
<g clip-path="url(#clip0_696_7737)">
<path d="M45.221 17.8084C44.6356 17.5829 44.0453 17.3741 43.4506 17.1819C43.5505 16.7236 43.6425 16.2708 43.7241 15.826C45.0643 8.52134 44.1882 2.63658 41.1956 0.699037C38.3264 -1.15842 33.634 0.778401 28.895 5.40926C28.4279 5.86645 27.9712 6.33683 27.5254 6.81996C27.2269 6.49871 26.9231 6.18369 26.6142 5.87507C21.6474 0.923621 16.6691 -1.16324 13.6797 0.779848C10.8131 2.64309 9.96424 8.17518 11.1708 15.0979C11.2908 15.7836 11.4264 16.4657 11.5773 17.1436C10.8726 17.3684 10.1926 17.6077 9.54186 17.8624C3.71873 20.142 0 23.7144 0 27.4199C0 31.247 3.99223 35.0856 10.0573 37.4132C10.549 37.6011 11.0448 37.7752 11.5442 37.9355C11.3821 38.6656 11.2381 39.4007 11.1124 40.1398C9.96209 46.9425 10.8604 52.3438 13.7193 54.1952C16.6721 56.1072 21.6281 54.1422 26.4537 49.4056C26.845 49.0205 27.2277 48.6246 27.6014 48.2181C28.0843 48.7412 28.58 49.2491 29.0881 49.7412C33.7627 54.2575 38.3793 56.0811 41.2354 54.2247C44.1854 52.3071 45.1443 46.5046 43.8995 39.4451C43.8014 38.892 43.6914 38.3417 43.5697 37.7946C43.9177 37.6788 44.2593 37.5597 44.5923 37.4357C50.8976 35.0902 55 31.2981 55 27.4199C55 23.7009 51.1612 20.1044 45.221 17.8084ZM43.8535 34.9317C43.5524 35.0433 43.2445 35.1515 42.9296 35.2562C42.2336 32.7819 41.2943 30.1511 40.1446 27.4327C41.2416 24.7791 42.1448 22.1818 42.8214 19.7237C43.384 19.9066 43.93 20.0993 44.4563 20.3027C49.546 22.2701 52.6505 25.1786 52.6505 27.4199C52.6505 29.8071 49.2976 32.9061 43.8535 34.9317ZM41.5946 39.9575C42.145 43.079 42.2235 45.9013 41.8589 48.1078C41.5314 50.0905 40.8727 51.4122 40.058 51.9417C38.3249 53.0682 34.6182 51.604 30.6206 47.7414C30.148 47.2839 29.6869 46.8117 29.2377 46.3254C30.7875 44.4223 32.3363 42.21 33.848 39.7529C36.5069 39.488 39.0188 39.0548 41.2968 38.4635C41.4093 38.972 41.5085 39.47 41.5946 39.9575ZM18.7507 51.747C17.0573 52.4183 15.7085 52.4376 14.8932 51.9098C13.1583 50.7864 12.4371 46.4494 13.4209 40.6319C13.5378 39.9445 13.6717 39.2608 13.8224 38.5817C16.0753 39.1414 18.5689 39.5438 21.2341 39.7864C22.756 42.1907 24.3495 44.4006 25.9555 46.3358C25.6142 46.7065 25.2648 47.0679 24.9077 47.4194C22.7737 49.5137 20.6353 50.9997 18.7507 51.747ZM10.8174 34.917C8.13549 33.8877 5.92066 32.5501 4.40258 31.0904C3.03832 29.7788 2.34975 28.4764 2.34975 27.4199C2.34975 25.1711 5.33543 22.3029 10.3153 20.3536C10.9196 20.1172 11.5521 19.894 12.2085 19.6847C12.8969 22.1982 13.7996 24.8264 14.8891 27.484C13.7854 30.181 12.8698 32.8511 12.1748 35.3944C11.7189 35.2477 11.2663 35.0886 10.8174 34.917ZM13.4767 14.5911C12.4431 8.66005 13.1295 4.18599 14.8571 3.06307C16.697 1.86706 20.7657 3.5723 25.0542 7.84783C25.3339 8.12725 25.609 8.41235 25.8794 8.70298C24.2814 10.6297 22.7025 12.8232 21.1941 15.2132C18.6074 15.4825 16.1313 15.9147 13.8548 16.4939C13.7146 15.8634 13.5885 15.2288 13.4767 14.5911ZM37.2013 21.1692C36.6636 20.1263 36.1059 19.0966 35.5287 18.0807C37.2836 18.3299 38.9649 18.6606 40.5438 19.0649C40.0699 20.7709 39.479 22.5543 38.7836 24.3828C38.2753 23.2999 37.7477 22.2284 37.2013 21.1692ZM27.5264 10.5887C28.6101 11.907 29.6955 13.3787 30.763 14.9756C28.5974 14.8608 26.4282 14.8603 24.2625 14.9742C25.3312 13.392 26.4258 11.9222 27.5264 10.5887ZM17.7895 21.187C17.2499 22.2378 16.7322 23.3025 16.2368 24.3804C15.5528 22.5584 14.9673 20.7668 14.4893 19.0367C16.0585 18.6425 17.7319 18.3203 19.4756 18.0757C18.892 19.0978 18.3298 20.1353 17.7895 21.187ZM19.5256 36.9515C17.7242 36.7257 16.0256 36.4201 14.4568 36.0365C14.9424 34.2756 15.5407 32.4459 16.2396 30.5848C16.7369 31.6635 17.2568 32.7289 17.7987 33.7801C18.356 34.8608 18.9331 35.9193 19.5256 36.9515ZM27.5913 44.4368C26.4776 43.0879 25.3668 41.5954 24.2821 39.9903C25.3352 40.0366 26.4088 40.0602 27.5 40.0602C28.6211 40.0602 29.7292 40.032 30.82 39.9775C29.749 41.6116 28.6677 43.1062 27.5913 44.4368ZM38.8057 30.4897C39.5409 32.3713 40.1605 34.1914 40.6525 35.9222C39.0579 36.3308 37.3362 36.6599 35.5221 36.9042C36.1034 35.8695 36.6663 34.8219 37.2105 33.762C37.7638 32.6847 38.2957 31.5937 38.8057 30.4897ZM35.1753 32.4439C34.3421 34.0689 33.4621 35.663 32.5368 37.2239C30.8605 37.3572 29.1805 37.4235 27.5 37.4224C25.7883 37.4224 24.1235 37.3626 22.5204 37.2458C21.5708 35.6887 20.674 34.0917 19.832 32.4584C18.9939 30.8338 18.2113 29.174 17.4855 27.4826C18.2095 25.7908 18.9899 24.1302 19.8251 22.5044L19.8249 22.5046C20.6597 20.8783 21.5493 19.2881 22.4918 17.7377C24.1274 17.5988 25.8047 17.5264 27.4998 17.5264C29.2026 17.5264 30.8823 17.5995 32.5175 17.7394C33.4504 19.2875 34.3343 20.8722 35.1676 22.4904C36.0055 24.1127 36.7962 25.7652 37.5386 27.4452C36.8038 29.1424 36.0156 30.8097 35.1753 32.4439ZM40.0222 2.98419C41.8638 4.17682 42.5801 8.98619 41.4229 15.2931C41.3488 15.6958 41.2664 16.1051 41.1759 16.5209C38.8938 15.9295 36.416 15.4897 33.8218 15.2164C32.3106 12.8 30.7446 10.6031 29.1726 8.7013C29.5846 8.2554 30.0064 7.82106 30.4376 7.39866C34.4981 3.43119 38.2931 1.86465 40.0222 2.98419ZM27.5 21.9054C30.2124 21.9054 32.4113 24.3744 32.4113 27.4199C32.4113 30.4654 30.2124 32.9343 27.5 32.9343C24.7876 32.9343 22.5887 30.4654 22.5887 27.4199C22.5887 24.3744 24.7876 21.9054 27.5 21.9054Z" fill="#00D8FF"/>
</g>
<defs>
<clipPath id="clip0_696_7737">
<rect width="55" height="55" fill="white"/>
</clipPath>
</defs>
</svg>
