<svg width="55" height="55" viewBox="0 0 55 55" fill="none" xmlns="http://www.w3.org/2000/svg">
<path d="M27.5004 51.5628C26.8512 51.5632 26.2133 51.3924 25.651 51.0678L19.766 47.5839C18.8878 47.0924 19.3157 46.9188 19.6062 46.8174C20.5405 46.5292 21.4349 46.125 22.2685 45.6142C22.3382 45.5815 22.4152 45.5672 22.492 45.573C22.5688 45.5787 22.6428 45.6041 22.7068 45.6469L27.2288 48.3333C27.313 48.3778 27.4069 48.4011 27.5021 48.4011C27.5974 48.4011 27.6912 48.3778 27.7754 48.3333L45.4098 38.1549C45.4927 38.1058 45.5612 38.0359 45.6086 37.952C45.6559 37.8682 45.6804 37.7733 45.6796 37.677V17.3167C45.6799 17.219 45.6548 17.1228 45.6069 17.0376C45.559 16.9524 45.49 16.881 45.4063 16.8303L27.772 6.66048C27.689 6.61316 27.5951 6.58827 27.4995 6.58827C27.404 6.58827 27.3101 6.61316 27.2271 6.66048L9.60306 16.8338C9.519 16.8835 9.44919 16.9541 9.40041 17.0387C9.35163 17.1233 9.32553 17.2191 9.32463 17.3167V37.6685C9.32574 37.7643 9.35186 37.8581 9.40039 37.9407C9.44893 38.0233 9.5182 38.0918 9.60135 38.1394L14.4379 40.9306C17.059 42.2403 18.6643 40.6969 18.6643 39.1466V19.0527C18.6643 18.9159 18.7186 18.7848 18.8153 18.6881C18.912 18.5914 19.0432 18.537 19.1799 18.537H21.4143C21.5511 18.537 21.6822 18.5914 21.7789 18.6881C21.8756 18.7848 21.9299 18.9159 21.9299 19.0527V39.1483C21.9299 42.646 20.0256 44.6483 16.7084 44.6483C15.2774 44.6722 13.8691 44.2896 12.647 43.5449L8.0115 40.8859C7.44923 40.5577 6.98267 40.088 6.65822 39.5235C6.33378 38.9591 6.16274 38.3195 6.16213 37.6685V17.3167C6.16011 16.6644 6.32998 16.0231 6.65464 15.4574C6.97931 14.8916 7.4473 14.4214 8.0115 14.0941L25.6476 3.9122C26.2159 3.602 26.853 3.43945 27.5004 3.43945C28.1478 3.43945 28.7849 3.602 29.3532 3.9122L46.9876 14.0941C47.5497 14.4218 48.0163 14.8909 48.341 15.4547C48.6657 16.0185 48.8373 16.6575 48.8387 17.3081V37.6685C48.8379 38.3197 48.6666 38.9594 48.3418 39.5238C48.0171 40.0883 47.5502 40.5579 46.9876 40.8859L29.3532 51.0678C28.7899 51.393 28.1508 51.5638 27.5004 51.5628Z" fill="#83CD29"/>
<path d="M24.1562 30.8565C24.1562 30.7198 24.2106 30.5886 24.3073 30.4919C24.404 30.3952 24.5351 30.3409 24.6719 30.3409H26.9527C27.0745 30.3413 27.1923 30.3848 27.2851 30.4638C27.3779 30.5428 27.4398 30.6521 27.4597 30.7723C27.8034 33.0943 28.8347 34.2648 33.4977 34.2648C37.2119 34.2648 38.7948 33.4243 38.7948 31.4529C38.7948 30.3168 38.3462 29.4729 32.573 28.9075C27.7467 28.4296 24.763 27.3606 24.763 23.5037C24.763 19.9459 27.7622 17.8232 32.7895 17.8232C38.4391 17.8232 41.2355 19.7843 41.5895 23.9918C41.5949 24.0621 41.5859 24.1327 41.563 24.1993C41.54 24.2659 41.5037 24.3271 41.4562 24.3791C41.4086 24.4312 41.351 24.4729 41.2867 24.5018C41.2224 24.5306 41.1529 24.546 41.0825 24.547H38.7862C38.6711 24.5454 38.5597 24.5052 38.47 24.433C38.3803 24.3607 38.3174 24.2605 38.2912 24.1482C37.743 21.7059 36.4006 20.9256 32.7912 20.9256C28.735 20.9256 28.2641 22.3384 28.2641 23.3971C28.2641 24.6793 28.8209 25.054 34.2969 25.7776C39.7161 26.4943 42.2908 27.5084 42.2908 31.3171C42.2908 35.1603 39.087 37.3603 33.4994 37.3603C25.7736 37.3706 24.1562 33.8282 24.1562 30.8565Z" fill="#83CD29"/>
</svg>
