<svg width="55" height="55" viewBox="0 0 55 55" fill="none" xmlns="http://www.w3.org/2000/svg">
<path d="M28.5644 51.562L27.2736 51.1341C27.2736 51.1341 27.4454 44.6028 25.0822 44.1439C23.5353 42.3427 25.3108 -32.7547 30.9654 43.8878C29.8912 44.4303 29.0698 45.3689 28.6744 46.5055C28.4602 48.1825 28.4233 49.8773 28.5644 51.562Z" fill="url(#paint0_linear_696_7754)"/>
<path d="M29.2634 45.2535C32.7007 42.6668 35.333 39.1575 36.8543 35.1336C38.3756 31.1098 38.7234 26.7367 37.8572 22.523C35.3306 11.3769 29.3477 7.71254 28.7031 6.31348C28.1488 5.4413 27.6742 4.52091 27.2852 3.56348L27.7613 34.6196C27.7613 34.6196 26.7747 44.1105 29.2634 45.2535Z" fill="url(#paint1_linear_696_7754)"/>
<path d="M26.6191 45.6655C26.6191 45.6655 16.0986 38.5 16.707 25.8242C16.7638 22.0028 17.64 18.2381 19.2764 14.7844C20.9129 11.3306 23.2714 8.2683 26.1928 5.80422C26.5337 5.51377 26.8046 5.15005 26.9853 4.74024C27.1659 4.33042 27.2517 3.88509 27.2361 3.4375C27.891 4.84687 27.7844 24.4802 27.8531 26.7764C28.1195 35.7088 27.3564 43.9794 26.6191 45.6655Z" fill="url(#paint2_linear_696_7754)"/>
<defs>
<linearGradient id="paint0_linear_696_7754" x1="19.8875" y1="27.9332" x2="34.7232" y2="32.9676" gradientUnits="userSpaceOnUse">
<stop offset="0.231" stop-color="#999875"/>
<stop offset="0.563" stop-color="#9B9977"/>
<stop offset="0.683" stop-color="#A09F7E"/>
<stop offset="0.768" stop-color="#A9A889"/>
<stop offset="0.837" stop-color="#B7B69A"/>
<stop offset="0.896" stop-color="#C9C7B0"/>
<stop offset="0.948" stop-color="#DEDDCB"/>
<stop offset="0.994" stop-color="#F8F6EB"/>
<stop offset="1" stop-color="#FBF9EF"/>
</linearGradient>
<linearGradient id="paint1_linear_696_7754" x1="25.3291" y1="3.34156" x2="31.8879" y2="44.2976" gradientUnits="userSpaceOnUse">
<stop stop-color="#48A547"/>
<stop offset="1" stop-color="#3F9143"/>
</linearGradient>
<linearGradient id="paint2_linear_696_7754" x1="15.8021" y1="27.0789" x2="33.4031" y2="21.1844" gradientUnits="userSpaceOnUse">
<stop stop-color="#41A247"/>
<stop offset="0.352" stop-color="#4BA74B"/>
<stop offset="0.956" stop-color="#67B554"/>
<stop offset="1" stop-color="#69B655"/>
</linearGradient>
</defs>
</svg>
