<svg width="55" height="55" viewBox="0 0 55 55" fill="none" xmlns="http://www.w3.org/2000/svg">
<path d="M54.4285 42.298C52.4691 42.7965 51.2574 42.3195 50.1703 40.6867C47.7297 37.0301 45.0355 33.541 42.4359 29.9875C42.1008 29.5277 41.7527 29.0766 41.3188 28.5051C38.2422 32.6559 35.1699 36.609 32.2867 40.7211C31.2555 42.1906 30.1727 42.8309 28.2477 42.3109L39.8148 26.7863L29.0469 12.7656C30.8988 12.4047 32.1793 12.5895 33.3137 14.248C35.8187 17.909 38.5816 21.3937 41.3359 25.0805C44.1074 21.4066 46.8359 17.9176 49.4141 14.291C50.4496 12.8215 51.5625 12.2629 53.423 12.8043C52.0137 14.6734 50.6344 16.5125 49.2465 18.3387C47.373 20.8008 45.534 23.293 43.5918 25.7035C42.9 26.5629 43.0117 27.1215 43.6305 27.9336C47.2227 32.6559 50.7719 37.4254 54.4285 42.298ZM0.571484 26.5285C0.880859 24.9773 1.08711 23.3961 1.5168 21.875C4.09492 12.6668 14.6652 8.83828 21.927 14.5445C26.1809 17.8918 27.2379 22.6098 27.0273 27.9293H3.05078C2.68984 37.4727 9.56055 43.2348 18.3176 40.2957C21.3898 39.2645 23.1988 36.8582 24.1055 33.8504C24.5652 32.3422 25.3258 32.1059 26.7438 32.5355C26.0176 36.2996 24.3719 39.4449 20.9344 41.4129C15.7781 44.3605 8.41758 43.4066 4.54609 39.3117C2.26016 36.9055 1.28906 33.9105 0.859375 30.675C0.794922 30.1594 0.661719 29.6523 0.558594 29.141C0.567187 28.2702 0.571484 27.3993 0.571484 26.5285ZM3.09375 25.8883H24.7629C24.6211 18.9875 20.3242 14.0848 14.4504 14.0418C8.00508 13.9902 3.37305 18.777 3.09375 25.8883Z" fill="white"/>
</svg>
