<svg width="55" height="55" viewBox="0 0 55 55" fill="none" xmlns="http://www.w3.org/2000/svg">
<g clip-path="url(#clip0_696_7717)">
<path d="M0 0H55V55H0V0Z" fill="#F7DF1E"/>
<path d="M14.4612 45.9623L18.6699 43.4151C19.4821 44.8548 20.2207 46.0729 21.9925 46.0729C23.6908 46.0729 24.7618 45.4086 24.7618 42.8245V25.2507H29.9303V42.8975C29.9303 48.2508 26.7923 50.6876 22.214 50.6876C18.0793 50.6876 15.6793 48.5462 14.4609 45.9619M32.7377 45.4084L36.9461 42.9719C38.054 44.7811 39.4939 46.1101 42.0411 46.1101C44.1829 46.1101 45.5484 45.0393 45.5484 43.5625C45.5484 41.7904 44.1455 41.1627 41.7826 40.1293L40.4908 39.575C36.7617 37.9879 34.2882 35.9942 34.2882 31.7854C34.2882 27.9088 37.2417 24.9551 41.8567 24.9551C45.1426 24.9551 47.5054 26.0998 49.2035 29.0902L45.1791 31.6747C44.2929 30.0873 43.3334 29.4597 41.8565 29.4597C40.3427 29.4597 39.3828 30.4196 39.3828 31.6747C39.3828 33.2253 40.3427 33.8533 42.5578 34.8132L43.8498 35.3668C48.2434 37.2499 50.7169 39.1696 50.7169 43.4888C50.7169 48.141 47.062 50.6882 42.1517 50.6882C37.3523 50.6882 34.2511 48.3993 32.7375 45.4086" fill="black"/>
</g>
<defs>
<clipPath id="clip0_696_7717">
<rect width="55" height="55" fill="white"/>
</clipPath>
</defs>
</svg>
