<svg width="55" height="55" viewBox="0 0 55 55" fill="none" xmlns="http://www.w3.org/2000/svg">
<path d="M10.1433 46.7517L6.28125 3.4375H48.7172L44.85 46.7448L27.4734 51.5625L10.1433 46.7517Z" fill="#E44F26"/>
<path d="M27.5 47.8845L41.5422 43.9915L44.8456 6.9834H27.5V47.8845Z" fill="#F1662A"/>
<path d="M27.498 23.0455H20.4684L19.9837 17.6056H27.498V12.293H14.1777L14.3049 13.7195L15.6095 28.3581H27.498V23.0455ZM27.498 36.8419L27.474 36.8488L21.558 35.252L21.1799 31.0153H15.8466L16.5909 39.3547L27.474 42.3763L27.498 42.3694V36.8419Z" fill="#EBEBEB"/>
<path d="M27.4805 23.0435V28.3562H34.022L33.4067 35.2466L27.4805 36.8451V42.3726L38.3722 39.3527L38.4512 38.4555L39.6991 24.4701L39.8297 23.0435H27.4805ZM27.4805 12.291V17.6037H40.3127L40.4192 16.4109L40.6616 13.7176L40.7888 12.291H27.4805Z" fill="white"/>
</svg>
