<svg width="55" height="55" viewBox="0 0 55 55" fill="none" xmlns="http://www.w3.org/2000/svg">
<path d="M10.1455 46.7517L6.28516 3.4375H48.7177L44.8522 46.7448L27.4756 51.5625L10.1455 46.7517Z" fill="#1572B6"/>
<path d="M27.5 47.8806L41.5422 43.9876L44.8456 6.97949H27.5V47.8806Z" fill="#33A9DC"/>
<path d="M27.5 22.6714H34.5297L35.0144 17.2316H27.5V11.9189H40.8203L40.6931 13.3438L39.3886 27.9841H27.5V22.6714Z" fill="white"/>
<path d="M27.5323 36.4689L27.5082 36.4758L21.5923 34.8773L21.2141 30.6406H15.8809L16.6251 38.9817L27.5065 42.0033L27.5323 41.9964V36.4689Z" fill="#EBEBEB"/>
<path d="M34.0776 27.7598L33.4382 34.8737L27.5137 36.4721V41.9996L38.4037 38.9815L38.4845 38.0843L39.4074 27.7598H34.0776Z" fill="white"/>
<path d="M27.5173 11.9189V17.2316H14.6851L14.5785 16.0371L14.3362 13.3438L14.209 11.9189H27.5173ZM27.4984 22.6714V27.9841H21.6563L21.5498 26.7896L21.3091 24.0963L21.182 22.6714H27.4984Z" fill="#EBEBEB"/>
</svg>
